<svg xmlns="http://www.w3.org/2000/svg" viewBox="0 0 400 400" width="400" height="400">
  <g fill="none" stroke="rgba(255, 255, 255, 0.15)" stroke-width="1.5" stroke-linecap="round">
    <!-- 原有 6 朵 -->
    <path transform="translate(50, 50) scale(1.5)" d="M10,25 C10,15 20,10 30,15 C35,5 55,5 60,15 C70,10 80,20 80,30 M15,35 C25,25 65,25 75,35" />
    <path transform="translate(250, 80) scale(1.2)" d="M10,25 C10,15 20,10 30,15 C35,5 55,5 60,15 C70,10 80,20 80,30 M15,35 C25,25 65,25 75,35" />
    <path transform="translate(150, 180) scale(1.8) rotate(5)" d="M10,25 C10,15 20,10 30,15 C35,5 55,5 60,15 C70,10 80,20 80,30 M15,35 C25,25 65,25 75,35" />
    <path transform="translate(320, 250) scale(1.4) rotate(-5)" d="M10,25 C10,15 20,10 30,15 C35,5 55,5 60,15 C70,10 80,20 80,30 M15,35 C25,25 65,25 75,35" />
    <path transform="translate(60, 300) scale(1.0)" d="M10,25 C10,15 20,10 30,15 C35,5 55,5 60,15 C70,10 80,20 80,30 M15,35 C25,25 65,25 75,35" />
    <path transform="translate(220, 350) scale(1.3)" d="M10,25 C10,15 20,10 30,15 C35,5 55,5 60,15 C70,10 80,20 80,30 M15,35 C25,25 65,25 75,35" />
    
    <!-- 新增 10 朵以填充空隙 -->
    <path transform="translate(360, 20) scale(0.8) rotate(10)" d="M10,25 C10,15 20,10 30,15 C35,5 55,5 60,15 C70,10 80,20 80,30 M15,35 C25,25 65,25 75,35" />
    <path transform="translate(10, 130) scale(0.9)" d="M10,25 C10,15 20,10 30,15 C35,5 55,5 60,15 C70,10 80,20 80,30 M15,35 C25,25 65,25 75,35" />
    <path transform="translate(280, 160) scale(1.1) rotate(-8)" d="M10,25 C10,15 20,10 30,15 C35,5 55,5 60,15 C70,10 80,20 80,30 M15,35 C25,25 65,25 75,35" />
    <path transform="translate(120, 380) scale(0.7)" d="M10,25 C10,15 20,10 30,15 C35,5 55,5 60,15 C70,10 80,20 80,30 M15,35 C25,25 65,25 75,35" />
    <path transform="translate(380, 320) scale(0.9)" d="M10,25 C10,15 20,10 30,15 C35,5 55,5 60,15 C70,10 80,20 80,30 M15,35 C25,25 65,25 75,35" />
    <path transform="translate(180, 20) scale(1.0) rotate(3)" d="M10,25 C10,15 20,10 30,15 C35,5 55,5 60,15 C70,10 80,20 80,30 M15,35 C25,25 65,25 75,35" />
    <path transform="translate(80, 220) scale(1.1)" d="M10,25 C10,15 20,10 30,15 C35,5 55,5 60,15 C70,10 80,20 80,30 M15,35 C25,25 65,25 75,35" />
    <path transform="translate(300, 380) scale(0.8) rotate(-5)" d="M10,25 C10,15 20,10 30,15 C35,5 55,5 60,15 C70,10 80,20 80,30 M15,35 C25,25 65,25 75,35" />
    <path transform="translate(20, 370) scale(0.9)" d="M10,25 C10,15 20,10 30,15 C35,5 55,5 60,15 C70,10 80,20 80,30 M15,35 C25,25 65,25 75,35" />
    <path transform="translate(340, 120) scale(1.2) rotate(6)" d="M10,25 C10,15 20,10 30,15 C35,5 55,5 60,15 C70,10 80,20 80,30 M15,35 C25,25 65,25 75,35" />
  </g>
</svg>